<mxfile host="app.diagrams.net" modified="2023-09-27T13:41:02.329Z" agent="Mozilla/5.0 (Macintosh; Intel Mac OS X 10.15; rv:109.0) Gecko/20100101 Firefox/117.0" etag="CQj9kq2zvReNo-bjgYuj" version="21.8.2" type="device">
  <diagram name="Page-1" id="13e1069c-82ec-6db2-03f1-153e76fe0fe0">
    <mxGraphModel dx="1064" dy="1112" grid="1" gridSize="10" guides="1" tooltips="1" connect="1" arrows="1" fold="1" page="1" pageScale="1" pageWidth="1100" pageHeight="850" background="none" math="0" shadow="0">
      <root>
        <mxCell id="0" />
        <mxCell id="1" parent="0" />
        <mxCell id="Yoc482AGjZtZv9MrqWck-33" value="" style="rounded=0;whiteSpace=wrap;html=1;" vertex="1" parent="1">
          <mxGeometry x="30" y="386" width="820" height="381" as="geometry" />
        </mxCell>
        <mxCell id="Yoc482AGjZtZv9MrqWck-32" value="" style="rounded=0;whiteSpace=wrap;html=1;" vertex="1" parent="1">
          <mxGeometry x="30" y="268" width="820" height="110" as="geometry" />
        </mxCell>
        <mxCell id="Yoc482AGjZtZv9MrqWck-30" value="" style="rounded=0;whiteSpace=wrap;html=1;" vertex="1" parent="1">
          <mxGeometry x="30" y="150" width="820" height="110" as="geometry" />
        </mxCell>
        <mxCell id="Yoc482AGjZtZv9MrqWck-26" value="unsealed" style="html=1;verticalAlign=bottom;endArrow=open;dashed=1;endSize=8;labelBackgroundColor=none;fontFamily=Verdana;fontSize=12;edgeStyle=elbowEdgeStyle;elbow=horizontal;" edge="1" parent="1">
          <mxGeometry relative="1" as="geometry">
            <mxPoint x="155" y="642" as="targetPoint" />
            <Array as="points">
              <mxPoint x="370.5" y="642" />
              <mxPoint x="400.5" y="642" />
            </Array>
            <mxPoint x="590" y="642" as="sourcePoint" />
          </mxGeometry>
        </mxCell>
        <mxCell id="7baba1c4bc27f4b0-2" value="&lt;div&gt;vault cluster&lt;/div&gt;&lt;div&gt;active member&lt;br&gt;&lt;/div&gt;" style="shape=umlLifeline;perimeter=lifelinePerimeter;whiteSpace=wrap;html=1;container=1;collapsible=0;recursiveResize=0;outlineConnect=0;rounded=1;shadow=0;comic=0;labelBackgroundColor=none;strokeWidth=1;fontFamily=Verdana;fontSize=12;align=center;" parent="1" vertex="1">
          <mxGeometry x="240" y="80" width="100" height="260" as="geometry" />
        </mxCell>
        <mxCell id="7baba1c4bc27f4b0-10" value="" style="html=1;points=[];perimeter=orthogonalPerimeter;rounded=0;shadow=0;comic=0;labelBackgroundColor=none;strokeWidth=1;fontFamily=Verdana;fontSize=12;align=center;" parent="7baba1c4bc27f4b0-2" vertex="1">
          <mxGeometry x="45" y="100" width="10" height="60" as="geometry" />
        </mxCell>
        <mxCell id="Yoc482AGjZtZv9MrqWck-9" value="" style="html=1;points=[];perimeter=orthogonalPerimeter;rounded=0;shadow=0;comic=0;labelBackgroundColor=none;strokeWidth=1;fontFamily=Verdana;fontSize=12;align=center;" vertex="1" parent="7baba1c4bc27f4b0-2">
          <mxGeometry x="45" y="213.5" width="10" height="60" as="geometry" />
        </mxCell>
        <mxCell id="Yoc482AGjZtZv9MrqWck-10" value="&lt;div&gt;read unseal key&lt;/div&gt;" style="html=1;verticalAlign=bottom;endArrow=block;entryX=0;entryY=0;labelBackgroundColor=none;fontFamily=Verdana;fontSize=12;edgeStyle=elbowEdgeStyle;elbow=vertical;" edge="1" parent="7baba1c4bc27f4b0-2" target="Yoc482AGjZtZv9MrqWck-9">
          <mxGeometry relative="1" as="geometry">
            <mxPoint x="-85" y="213.5" as="sourcePoint" />
          </mxGeometry>
        </mxCell>
        <mxCell id="Yoc482AGjZtZv9MrqWck-11" value="unseal key" style="html=1;verticalAlign=bottom;endArrow=open;dashed=1;endSize=8;labelBackgroundColor=none;fontFamily=Verdana;fontSize=12;edgeStyle=elbowEdgeStyle;elbow=vertical;" edge="1" parent="7baba1c4bc27f4b0-2">
          <mxGeometry relative="1" as="geometry">
            <mxPoint x="-87" y="273.5" as="targetPoint" />
            <Array as="points">
              <mxPoint x="-12" y="273.5" />
              <mxPoint x="18" y="273.5" />
            </Array>
            <mxPoint x="43" y="273.5" as="sourcePoint" />
          </mxGeometry>
        </mxCell>
        <mxCell id="Yoc482AGjZtZv9MrqWck-16" value="auth" style="html=1;verticalAlign=bottom;endArrow=block;labelBackgroundColor=none;fontFamily=Verdana;fontSize=12;elbow=vertical;edgeStyle=orthogonalEdgeStyle;curved=1;entryX=1;entryY=0.286;entryPerimeter=0;exitX=1.038;exitY=0.345;exitPerimeter=0;" edge="1" parent="7baba1c4bc27f4b0-2">
          <mxGeometry x="-0.2308" y="-1" relative="1" as="geometry">
            <mxPoint x="54" y="111" as="sourcePoint" />
            <mxPoint x="59" y="149" as="targetPoint" />
            <Array as="points">
              <mxPoint x="109" y="111" />
              <mxPoint x="109" y="149" />
            </Array>
            <mxPoint x="1" y="-1" as="offset" />
          </mxGeometry>
        </mxCell>
        <mxCell id="7baba1c4bc27f4b0-3" value="&lt;div&gt;vault cluster&lt;/div&gt;&lt;div&gt;member #0&lt;br&gt;&lt;/div&gt;" style="shape=umlLifeline;perimeter=lifelinePerimeter;whiteSpace=wrap;html=1;container=1;collapsible=0;recursiveResize=0;outlineConnect=0;rounded=1;shadow=0;comic=0;labelBackgroundColor=none;strokeWidth=1;fontFamily=Verdana;fontSize=12;align=center;" parent="1" vertex="1">
          <mxGeometry x="400" y="80" width="100" height="370" as="geometry" />
        </mxCell>
        <mxCell id="Yoc482AGjZtZv9MrqWck-12" value="" style="html=1;points=[];perimeter=orthogonalPerimeter;rounded=0;shadow=0;comic=0;labelBackgroundColor=none;strokeWidth=1;fontFamily=Verdana;fontSize=12;align=center;" vertex="1" parent="7baba1c4bc27f4b0-3">
          <mxGeometry x="45" y="323" width="10" height="47" as="geometry" />
        </mxCell>
        <mxCell id="7baba1c4bc27f4b0-4" value="&lt;div&gt;vault cluster&lt;/div&gt;&lt;div&gt;member n-1&lt;/div&gt;" style="shape=umlLifeline;perimeter=lifelinePerimeter;whiteSpace=wrap;html=1;container=1;collapsible=0;recursiveResize=0;outlineConnect=0;rounded=1;shadow=0;comic=0;labelBackgroundColor=none;strokeWidth=1;fontFamily=Verdana;fontSize=12;align=center;" parent="1" vertex="1">
          <mxGeometry x="540" y="80" width="100" height="560" as="geometry" />
        </mxCell>
        <mxCell id="Yoc482AGjZtZv9MrqWck-20" value="true" style="html=1;verticalAlign=bottom;endArrow=open;dashed=1;endSize=8;labelBackgroundColor=none;fontFamily=Verdana;fontSize=12;edgeStyle=elbowEdgeStyle;elbow=horizontal;" edge="1" parent="7baba1c4bc27f4b0-4">
          <mxGeometry relative="1" as="geometry">
            <mxPoint x="-385" y="460" as="targetPoint" />
            <Array as="points">
              <mxPoint x="-169.5" y="460" />
              <mxPoint x="-139.5" y="460" />
            </Array>
            <mxPoint x="50" y="460" as="sourcePoint" />
          </mxGeometry>
        </mxCell>
        <mxCell id="7baba1c4bc27f4b0-5" value="&lt;div&gt;vault cluster&lt;/div&gt;&lt;div&gt;member n&lt;br&gt;&lt;/div&gt;" style="shape=umlLifeline;perimeter=lifelinePerimeter;whiteSpace=wrap;html=1;container=1;collapsible=0;recursiveResize=0;outlineConnect=0;rounded=1;shadow=0;comic=0;labelBackgroundColor=none;strokeWidth=1;fontFamily=Verdana;fontSize=12;align=center;" parent="1" vertex="1">
          <mxGeometry x="680" y="80" width="100" height="670" as="geometry" />
        </mxCell>
        <mxCell id="Yoc482AGjZtZv9MrqWck-28" value="false" style="html=1;verticalAlign=bottom;endArrow=open;dashed=1;endSize=8;labelBackgroundColor=none;fontFamily=Verdana;fontSize=12;edgeStyle=elbowEdgeStyle;elbow=vertical;" edge="1" parent="7baba1c4bc27f4b0-5">
          <mxGeometry relative="1" as="geometry">
            <mxPoint x="-524.5" y="670" as="targetPoint" />
            <Array as="points">
              <mxPoint x="-163" y="670" />
              <mxPoint x="-133" y="670" />
            </Array>
            <mxPoint x="56.5" y="670" as="sourcePoint" />
          </mxGeometry>
        </mxCell>
        <mxCell id="Yoc482AGjZtZv9MrqWck-27" value="" style="html=1;points=[];perimeter=orthogonalPerimeter;rounded=0;shadow=0;comic=0;labelBackgroundColor=none;strokeWidth=1;fontFamily=Verdana;fontSize=12;align=center;" vertex="1" parent="7baba1c4bc27f4b0-5">
          <mxGeometry x="45" y="610" width="10" height="60" as="geometry" />
        </mxCell>
        <mxCell id="Yoc482AGjZtZv9MrqWck-29" value="is sealed?" style="html=1;verticalAlign=bottom;endArrow=block;labelBackgroundColor=none;fontFamily=Verdana;fontSize=12;edgeStyle=elbowEdgeStyle;elbow=vertical;" edge="1" parent="7baba1c4bc27f4b0-5">
          <mxGeometry relative="1" as="geometry">
            <mxPoint x="-530.5" y="610" as="sourcePoint" />
            <mxPoint x="50" y="610" as="targetPoint" />
          </mxGeometry>
        </mxCell>
        <mxCell id="7baba1c4bc27f4b0-8" value="&lt;div&gt;vault&lt;/div&gt;&lt;div&gt;unsealer&lt;br&gt;&lt;/div&gt;" style="shape=umlLifeline;perimeter=lifelinePerimeter;whiteSpace=wrap;html=1;container=1;collapsible=0;recursiveResize=0;outlineConnect=0;rounded=1;shadow=0;comic=0;labelBackgroundColor=none;strokeWidth=1;fontFamily=Verdana;fontSize=12;align=center;" parent="1" vertex="1">
          <mxGeometry x="100" y="80" width="100" height="670" as="geometry" />
        </mxCell>
        <mxCell id="Yoc482AGjZtZv9MrqWck-18" value="false" style="html=1;verticalAlign=bottom;endArrow=open;dashed=1;endSize=8;labelBackgroundColor=none;fontFamily=Verdana;fontSize=12;edgeStyle=elbowEdgeStyle;elbow=vertical;" edge="1" parent="7baba1c4bc27f4b0-8">
          <mxGeometry relative="1" as="geometry">
            <mxPoint x="56" y="370" as="targetPoint" />
            <Array as="points">
              <mxPoint x="131" y="370" />
              <mxPoint x="161" y="370" />
            </Array>
            <mxPoint x="350.5" y="370" as="sourcePoint" />
          </mxGeometry>
        </mxCell>
        <mxCell id="7baba1c4bc27f4b0-9" value="" style="html=1;points=[];perimeter=orthogonalPerimeter;rounded=0;shadow=0;comic=0;labelBackgroundColor=none;strokeWidth=1;fontFamily=Verdana;fontSize=12;align=center;" parent="7baba1c4bc27f4b0-8" vertex="1">
          <mxGeometry x="45" y="100" width="10" height="70" as="geometry" />
        </mxCell>
        <mxCell id="Yoc482AGjZtZv9MrqWck-15" value="is sealed?" style="html=1;verticalAlign=bottom;endArrow=block;labelBackgroundColor=none;fontFamily=Verdana;fontSize=12;edgeStyle=elbowEdgeStyle;elbow=vertical;" edge="1" parent="7baba1c4bc27f4b0-8">
          <mxGeometry relative="1" as="geometry">
            <mxPoint x="55" y="323" as="sourcePoint" />
            <mxPoint x="349.5" y="323" as="targetPoint" />
          </mxGeometry>
        </mxCell>
        <mxCell id="Yoc482AGjZtZv9MrqWck-21" value="" style="html=1;points=[];perimeter=orthogonalPerimeter;rounded=0;shadow=0;comic=0;labelBackgroundColor=none;strokeWidth=1;fontFamily=Verdana;fontSize=12;align=center;" vertex="1" parent="7baba1c4bc27f4b0-8">
          <mxGeometry x="45" y="213" width="10" height="71" as="geometry" />
        </mxCell>
        <mxCell id="Yoc482AGjZtZv9MrqWck-22" value="" style="html=1;points=[];perimeter=orthogonalPerimeter;rounded=0;shadow=0;comic=0;labelBackgroundColor=none;strokeWidth=1;fontFamily=Verdana;fontSize=12;align=center;" vertex="1" parent="7baba1c4bc27f4b0-8">
          <mxGeometry x="45" y="323" width="10" height="347" as="geometry" />
        </mxCell>
        <mxCell id="7baba1c4bc27f4b0-16" value="" style="html=1;points=[];perimeter=orthogonalPerimeter;rounded=0;shadow=0;comic=0;labelBackgroundColor=none;strokeWidth=1;fontFamily=Verdana;fontSize=12;align=center;" parent="1" vertex="1">
          <mxGeometry x="585" y="490" width="10" height="50" as="geometry" />
        </mxCell>
        <mxCell id="7baba1c4bc27f4b0-11" value="authenticate" style="html=1;verticalAlign=bottom;endArrow=block;entryX=0;entryY=0;labelBackgroundColor=none;fontFamily=Verdana;fontSize=12;edgeStyle=elbowEdgeStyle;elbow=vertical;" parent="1" source="7baba1c4bc27f4b0-9" target="7baba1c4bc27f4b0-10" edge="1">
          <mxGeometry relative="1" as="geometry">
            <mxPoint x="220" y="190" as="sourcePoint" />
          </mxGeometry>
        </mxCell>
        <mxCell id="7baba1c4bc27f4b0-35" value="unseal" style="html=1;verticalAlign=bottom;endArrow=block;labelBackgroundColor=none;fontFamily=Verdana;fontSize=12;elbow=vertical;edgeStyle=orthogonalEdgeStyle;curved=1;entryX=1;entryY=0.286;entryPerimeter=0;exitX=1.038;exitY=0.345;exitPerimeter=0;" parent="1" edge="1">
          <mxGeometry x="-0.1367" y="11" relative="1" as="geometry">
            <mxPoint x="595.3800000000001" y="601.3900000000001" as="sourcePoint" />
            <mxPoint x="599" y="631.02" as="targetPoint" />
            <Array as="points">
              <mxPoint x="649" y="593" />
              <mxPoint x="649" y="631" />
            </Array>
            <mxPoint as="offset" />
          </mxGeometry>
        </mxCell>
        <mxCell id="Yoc482AGjZtZv9MrqWck-1" value="token" style="html=1;verticalAlign=bottom;endArrow=open;dashed=1;endSize=8;labelBackgroundColor=none;fontFamily=Verdana;fontSize=12;edgeStyle=elbowEdgeStyle;elbow=vertical;" edge="1" parent="1">
          <mxGeometry relative="1" as="geometry">
            <mxPoint x="158" y="240" as="targetPoint" />
            <Array as="points">
              <mxPoint x="223" y="240" />
              <mxPoint x="253" y="240" />
            </Array>
            <mxPoint x="278" y="240" as="sourcePoint" />
          </mxGeometry>
        </mxCell>
        <mxCell id="Yoc482AGjZtZv9MrqWck-17" value="read key" style="html=1;verticalAlign=bottom;endArrow=block;labelBackgroundColor=none;fontFamily=Verdana;fontSize=12;elbow=vertical;edgeStyle=orthogonalEdgeStyle;curved=1;entryX=1;entryY=0.286;entryPerimeter=0;exitX=1.038;exitY=0.345;exitPerimeter=0;" edge="1" parent="1">
          <mxGeometry x="-0.2308" y="9" relative="1" as="geometry">
            <mxPoint x="296" y="305" as="sourcePoint" />
            <mxPoint x="301" y="343" as="targetPoint" />
            <Array as="points">
              <mxPoint x="351" y="305" />
              <mxPoint x="351" y="343" />
            </Array>
            <mxPoint y="-1" as="offset" />
          </mxGeometry>
        </mxCell>
        <mxCell id="Yoc482AGjZtZv9MrqWck-19" value="is sealed?" style="html=1;verticalAlign=bottom;endArrow=block;labelBackgroundColor=none;fontFamily=Verdana;fontSize=12;edgeStyle=elbowEdgeStyle;elbow=vertical;" edge="1" parent="1">
          <mxGeometry relative="1" as="geometry">
            <mxPoint x="160" y="490" as="sourcePoint" />
            <mxPoint x="589.5" y="490" as="targetPoint" />
          </mxGeometry>
        </mxCell>
        <mxCell id="Yoc482AGjZtZv9MrqWck-25" value="unseal(key=xxx)" style="html=1;verticalAlign=bottom;endArrow=block;labelBackgroundColor=none;fontFamily=Verdana;fontSize=12;edgeStyle=elbowEdgeStyle;elbow=vertical;" edge="1" parent="1">
          <mxGeometry relative="1" as="geometry">
            <mxPoint x="155" y="579.5" as="sourcePoint" />
            <mxPoint x="585" y="579.5" as="targetPoint" />
          </mxGeometry>
        </mxCell>
        <mxCell id="Yoc482AGjZtZv9MrqWck-31" value="Authenticate" style="text;html=1;strokeColor=none;fillColor=none;align=center;verticalAlign=middle;whiteSpace=wrap;rounded=0;" vertex="1" parent="1">
          <mxGeometry x="40" y="195" width="60" height="30" as="geometry" />
        </mxCell>
        <mxCell id="Yoc482AGjZtZv9MrqWck-34" value="Read unseal key" style="text;html=1;strokeColor=none;fillColor=none;align=center;verticalAlign=middle;whiteSpace=wrap;rounded=0;" vertex="1" parent="1">
          <mxGeometry x="40" y="308" width="60" height="30" as="geometry" />
        </mxCell>
        <mxCell id="Yoc482AGjZtZv9MrqWck-35" value="Unseal instances" style="text;html=1;strokeColor=none;fillColor=none;align=center;verticalAlign=middle;whiteSpace=wrap;rounded=0;" vertex="1" parent="1">
          <mxGeometry x="40" y="561.5" width="60" height="30" as="geometry" />
        </mxCell>
        <mxCell id="Yoc482AGjZtZv9MrqWck-36" value="" style="html=1;points=[];perimeter=orthogonalPerimeter;rounded=0;shadow=0;comic=0;labelBackgroundColor=none;strokeWidth=1;fontFamily=Verdana;fontSize=12;align=center;" vertex="1" parent="1">
          <mxGeometry x="585" y="580" width="10" height="62" as="geometry" />
        </mxCell>
      </root>
    </mxGraphModel>
  </diagram>
</mxfile>
